<svg xmlns="http://www.w3.org/2000/svg" version="1.1" xmlns:xlink="http://www.w3.org/1999/xlink" xmlns:svgjs="http://svgjs.dev/svgjs" width="2000" height="1500" viewBox="0 0 2000 1500"><rect width="2000" height="1500" fill="#ffffff"></rect><g transform="matrix(0.4336513443191674,0,0,0.4336513443191674,566.105226698456,248.38709677419354)"><svg viewBox="0 0 215 248" data-background-color="#c0ff00" preserveAspectRatio="xMidYMid meet" height="2306" width="2000" xmlns="http://www.w3.org/2000/svg" xmlns:xlink="http://www.w3.org/1999/xlink"><g id="tight-bounds" transform="matrix(1,0,0,1,0.06034482758622062,0.4000000000000057)"><svg viewBox="0 0 214.87931034482756 247.2" height="247.2" width="214.87931034482756"><g><svg viewBox="0 0 214.87931034482756 247.2" height="247.2" width="214.87931034482756"><g><svg viewBox="0 0 214.87931034482756 247.2" height="247.2" width="214.87931034482756"><g id="textblocktransform"><svg viewBox="0 0 214.87931034482756 247.2" height="247.2" width="214.87931034482756" id="textblock"><g><svg viewBox="0 0 214.87931034482756 247.2" height="247.2" width="214.87931034482756"><g transform="matrix(1,0,0,1,0,0)"><svg width="214.87931034482756" viewBox="0.39 -39.89 29.54 33.980000000000004" height="247.2" data-palette-color="#183d24"><path d="M15.09-5.91L15.09-5.91Q13.53-5.91 12.33-7.1L12.33-7.1Q11.18-8.2 11.18-10.3L11.18-10.3Q11.18-11.45 11.45-12.6L11.45-12.6Q11.65-13.82 11.89-14.79L11.89-14.79 12.6-17.36 13.28-19.56 11.89-17.85 10.13-15.75 8.64-14.26Q7.93-13.55 6.84-12.74L6.84-12.74Q5.4-11.89 4.2-11.89L4.2-11.89Q3.98-11.89 3.44-12.01L3.44-12.01Q1.88-12.3 1.05-13.65L1.05-13.65Q0.39-14.72 0.39-15.75L0.39-15.75Q0.39-16.7 0.88-17.55L0.88-17.55Q1.42-18.58 2.54-19.41L2.54-19.41Q3.64-20.12 5.4-20.8L5.4-20.8Q6.4-21.22 7.4-21.53 8.4-21.85 9.4-22.09L9.4-22.09 12.45-23.05Q12.28-23.1 12.05-23.18 11.82-23.27 11.47-23.39L11.47-23.39Q11.13-23.51 10.62-23.66 10.11-23.8 9.4-24L9.4-24Q8.33-24.34 7.34-24.66 6.35-24.98 5.44-25.29L5.44-25.29Q4.54-25.68 3.83-26.04 3.13-26.39 2.64-26.71L2.64-26.71Q1.51-27.49 0.95-28.54L0.95-28.54Q0.49-29.44 0.49-30.35L0.49-30.35Q0.49-31.49 1.1-32.4L1.1-32.4 0.88-32.25Q1.66-33.57 3.25-33.91L3.25-33.91Q3.66-34.01 3.98-34.01L3.98-34.01Q5.25-34.01 6.69-33.15L6.69-33.15Q7.57-32.52 8.45-31.64L8.45-31.64Q9.52-30.69 9.99-30.1L9.99-30.1 11.74-28.05Q12.3-27.37 12.66-26.93 13.01-26.49 13.18-26.29L13.18-26.29 12.55-28.44 11.79-31.05Q11.55-31.88 11.35-33.2L11.35-33.2Q11.08-34.77 11.08-35.5L11.08-35.5Q11.08-37.6 12.28-38.7L12.28-38.7Q13.45-39.89 15.04-39.89L15.04-39.89Q16.6-39.89 17.8-38.7L17.8-38.7Q18.95-37.6 18.95-35.5L18.95-35.5Q18.95-35.25 18.92-34.83 18.9-34.4 18.85-33.79L18.85-33.79 18.48-31.86 17.99-30.05 17.43-28.1 16.89-26.34 18.38-28.1Q18.92-28.76 20.09-30.1L20.09-30.1Q20.68-30.81 21.68-31.69L21.68-31.69Q22.56-32.57 23.44-33.2L23.44-33.2Q24.93-34.06 26.1-34.06L26.1-34.06Q26.42-34.06 26.83-33.96L26.83-33.96Q28.47-33.62 29.25-32.3L29.25-32.3Q29.88-31.23 29.88-30.2L29.88-30.2Q29.88-29.25 29.39-28.39L29.39-28.39Q28.86-27.37 27.73-26.54L27.73-26.54Q26.66-25.85 24.9-25.15L24.9-25.15Q23.71-24.73 22.69-24.4 21.68-24.07 20.9-23.85L20.9-23.85Q19.78-23.54 17.9-22.9L17.9-22.9Q18.16-22.8 18.92-22.57 19.68-22.34 20.95-21.95L20.95-21.95Q21.73-21.73 22.74-21.4 23.75-21.07 24.95-20.65L24.95-20.65Q26.81-19.87 27.78-19.19L27.78-19.19Q28.96-18.43 29.44-17.41L29.44-17.41Q29.93-16.43 29.93-15.6L29.93-15.6Q29.93-14.5 29.3-13.5L29.3-13.5Q28.47-12.18 26.88-11.79L26.88-11.79Q26.64-11.74 26.2-11.74L26.2-11.74Q24.93-11.74 23.49-12.6L23.49-12.6Q22.71-13.09 21.68-14.04L21.68-14.04Q21-14.7 20.14-15.65L20.14-15.65Q18.95-16.94 18.38-17.7L18.38-17.7 16.89-19.46 17.6-17.31 18.33-14.7Q18.43-14.31 18.55-13.79 18.68-13.28 18.8-12.6L18.8-12.6Q19.04-11.16 19.04-10.3L19.04-10.3Q19.04-8.23 17.85-7.1L17.85-7.1Q16.75-5.91 15.09-5.91Z" opacity="1" transform="matrix(1,0,0,1,0,0)" fill="#000000" class="wordmark-text-0" data-fill-palette-color="primary" id="text-0"></path></svg></g></svg></g></svg></g></svg></g><g></g></svg></g><defs></defs></svg><rect width="214.87931034482756" height="247.2" fill="none" stroke="none" visibility="hidden"></rect></g></svg></g></svg>