<svg xmlns="http://www.w3.org/2000/svg" version="1.1" xmlns:xlink="http://www.w3.org/1999/xlink" xmlns:svgjs="http://svgjs.dev/svgjs" width="2000" height="1500" viewBox="0 0 2000 1500"><rect width="2000" height="1500" fill="#000000"></rect><g transform="matrix(0.75,0,0,0.75,249.090909090909,278.98548387096776)"><svg viewBox="0 0 396 248" data-background-color="#293040" preserveAspectRatio="xMidYMid meet" height="1252" width="2000" xmlns="http://www.w3.org/2000/svg" xmlns:xlink="http://www.w3.org/1999/xlink"><g id="tight-bounds" transform="matrix(1,0,0,1,0.2400000000000091,0.4000000000000057)"><svg viewBox="0 0 395.52 247.2" height="247.2" width="395.52"><g><svg></svg></g><g><svg viewBox="0 0 395.52 247.2" height="247.2" width="395.52"><mask id="5a16445a-a42c-4ec8-8a3b-d97decc9e206"><rect width="640" height="400" fill="white"></rect><g transform="matrix(1,0,0,1,115.34371541501976,37.08)"><svg viewBox="0 0 164.83256916996046 173.04" height="173.04" width="164.83256916996046"><g><svg viewBox="0 0 164.83256916996046 173.04" height="173.04" width="164.83256916996046"><g><svg viewBox="0 0 164.83256916996046 173.04" height="173.04" width="164.83256916996046"><g><svg viewBox="0 0 164.83256916996046 173.04" height="173.04" width="164.83256916996046"><g id="SvgjsG9661"><svg viewBox="0 0 164.83256916996046 173.04" height="173.04" width="164.83256916996046" id="SvgjsSvg9660"><g><svg viewBox="0 0 164.83256916996046 173.04" height="173.04" width="164.83256916996046"><g transform="matrix(1,0,0,1,0,0)"><svg width="164.83256916996046" viewBox="-1.75 -9.18 13.05 13.66" height="173.04" data-palette-color="#d5b263"><path d="M4.78 0.48L4.78 0.48Q3.48 0.48 2.86-0.24 2.25-0.95 2.25-2.25L2.25-2.25 2.25-2.5Q2.25-3.78 2.86-4.48 3.48-5.18 4.78-5.18L4.78-5.18Q6.05-5.18 6.68-4.48 7.3-3.78 7.3-2.5L7.3-2.5 7.3-2.25Q7.3-0.95 6.68-0.24 6.05 0.48 4.78 0.48Z" opacity="1" transform="matrix(1,0,0,1,0,0)" fill="black" class="wordmark-text-0" id="SvgjsPath9659" stroke-width="7" stroke="black" stroke-linejoin="round"></path></svg></g></svg></g></svg></g></svg></g></svg></g></svg></g></svg></g></mask><g transform="matrix(1,0,0,1,115.34371541501976,37.08)"><svg viewBox="0 0 164.83256916996046 173.04" height="173.04" width="164.83256916996046"><g><svg viewBox="0 0 164.83256916996046 173.04" height="173.04" width="164.83256916996046"><g><svg viewBox="0 0 164.83256916996046 173.04" height="173.04" width="164.83256916996046"><g><svg viewBox="0 0 164.83256916996046 173.04" height="173.04" width="164.83256916996046"><g id="textblocktransform"><svg viewBox="0 0 164.83256916996046 173.04" height="173.04" width="164.83256916996046" id="textblock"><g><svg viewBox="0 0 164.83256916996046 173.04" height="173.04" width="164.83256916996046"><g transform="matrix(1,0,0,1,0,0)"><svg width="164.83256916996046" viewBox="-1.75 -9.18 13.05 13.66" height="173.04" data-palette-color="#d5b263"><path d="M4.78 0.48L4.78 0.48Q3.48 0.48 2.86-0.24 2.25-0.95 2.25-2.25L2.25-2.25 2.25-2.5Q2.25-3.78 2.86-4.48 3.48-5.18 4.78-5.18L4.78-5.18Q6.05-5.18 6.68-4.48 7.3-3.78 7.3-2.5L7.3-2.5 7.3-2.25Q7.3-0.95 6.68-0.24 6.05 0.48 4.78 0.48Z" opacity="1" transform="matrix(1,0,0,1,0,0)" fill="#ffffff" class="wordmark-text-0" data-fill-palette-color="primary" id="text-0"></path></svg></g></svg></g></svg></g></svg></g></svg></g></svg></g></svg></g><g mask="url(#5a16445a-a42c-4ec8-8a3b-d97decc9e206)"><g transform="matrix(11.145454545454545, 0, 0, 11.145454545454545, 142.03084069667847, 1)"><svg xmlns="http://www.w3.org/2000/svg" data-name="Layer 1" viewBox="9.99994131184996 4 10.000338537300761 22" x="0" y="0" height="22" width="10.000338537300761" class="icon-none" data-fill-palette-color="accent" id="none"><path class="cls-1" d="M18 8V7A3 3 0 0 0 12 7V8A5.42 5.42 0 0 0 10 12.23V26H11V12.26A4.36 4.36 0 0 1 12 9.47V12A3 3 0 0 0 18 12V9.47A4.36 4.36 0 0 1 19 12.26V26H20V12.26A5.42 5.42 0 0 0 18 8M17 12A2 2 0 0 1 13 12V7A2 2 0 0 1 17 7z" fill="#ffffff" data-fill-palette-color="accent"></path></svg></g></g></svg></g><defs></defs></svg><rect width="395.52" height="247.2" fill="none" stroke="none" visibility="hidden"></rect></g></svg></g></svg>