<svg xmlns="http://www.w3.org/2000/svg" version="1.1" xmlns:xlink="http://www.w3.org/1999/xlink" xmlns:svgjs="http://svgjs.dev/svgjs" width="2000" height="2000" viewBox="0 0 2000 2000"><g transform="matrix(1,0,0,1,-0.28443113772425477,-0.28443113772459583)"><svg viewBox="0 0 334 334" data-background-color="#c0ff00" preserveAspectRatio="xMidYMid meet" height="2000" width="2000" xmlns="http://www.w3.org/2000/svg" xmlns:xlink="http://www.w3.org/1999/xlink"><g id="tight-bounds" transform="matrix(1,0,0,1,0.04749999999998522,0.04750000000001364)"><svg viewBox="0 0 333.90454557049503 333.90454557049503" height="333.90454557049503" width="333.90454557049503"><g><svg></svg></g><g><svg viewBox="0 0 333.90454557049503 333.90454557049503" height="333.90454557049503" width="333.90454557049503"><g><path d="M0 166.952c0-92.205 74.747-166.952 166.952-166.952 92.205 0 166.952 74.747 166.953 166.952 0 92.205-74.747 166.952-166.953 166.953-92.205 0-166.952-74.747-166.952-166.953zM166.952 323.628c86.53 0 156.676-70.146 156.676-156.676 0-86.53-70.146-156.676-156.676-156.676-86.53 0-156.676 70.146-156.676 156.676 0 86.53 70.146 156.676 156.676 156.676z" data-fill-palette-color="tertiary" fill="#ffffff" stroke="transparent"></path><ellipse rx="160.27418187383762" ry="160.27418187383762" cx="166.95227278524752" cy="166.95227278524752" fill="#ffffff" stroke="transparent" stroke-width="0" fill-opacity="1" data-fill-palette-color="tertiary"></ellipse></g><g transform="matrix(1,0,0,1,80.05606246901658,71.17305217166896)"><svg viewBox="0 0 173.79242063246187 191.55844122715712" height="191.55844122715712" width="173.79242063246187"><g><svg viewBox="0 0 173.79242063246187 191.55844122715712" height="191.55844122715712" width="173.79242063246187"><g><svg viewBox="0 0 213.1584412271571 234.948673752795" height="191.55844122715712" width="173.79242063246187"><g transform="matrix(1,0,0,1,0,95.18670303667832)"><svg viewBox="0 0 213.1584412271571 139.76197071611668" height="139.76197071611668" width="213.1584412271571"><g id="textblocktransform"><svg viewBox="0 0 213.1584412271571 139.76197071611668" height="139.76197071611668" width="213.1584412271571" id="textblock"><g><svg viewBox="0 0 213.1584412271571 139.76197071611668" height="139.76197071611668" width="213.1584412271571"><g transform="matrix(1,0,0,1,0,0)"><svg width="213.1584412271571" viewBox="0.75 -40 62.15 40.75" height="139.76197071611668" data-palette-color="#c0ff00"><path d="M7.3-16.45L7.3-16.45Q4.4-16.05 2.5-16.05L2.5-16.05Q1.85-16.05 1.85-16.55L1.85-16.55Q1.85-17.7 3.43-18.98 5-20.25 8.55-21.2L8.55-21.2Q10.15-26.9 12.2-31.65L12.2-31.65Q7.2-31.4 4-28.35L4-28.35Q3.2-27.55 2.7-27.1 2.2-26.65 1.83-26.65 1.45-26.65 1.1-27.25 0.75-27.85 0.75-28.85L0.75-28.85Q0.8-32.7 5.95-35.1 11.1-37.5 18.65-37.45L18.65-37.45 33.65-37.2Q35-37.2 35-36.15L35-36.15Q35-35.85 34.6-35.08 34.2-34.3 33.9-33.4L33.9-33.4Q33.25-31.6 31.1-31.6L31.1-31.6 29.5-31.6 22.85-31.65 19-31.65Q18.6-28.8 16.6-22.35L16.6-22.35 25.75-22.2Q26.55-22.2 26.55-21.25L26.55-21.25Q26.55-20.95 26.3-20.2 26.05-19.45 25.85-18.65L25.85-18.65Q25.45-17 24.15-17L24.15-17 16.55-17.35 15.9-17.35Q15.6-17.35 15.2-17.3L15.2-17.3Q12.6-7.75 12.6-2.2L12.6-2.2Q12.6 0.75 6.85 0.75L6.85 0.75Q5.6 0.75 5.38-0.53 5.15-1.8 5.15-3.9L5.15-3.9Q5.15-8.4 7.3-16.45ZM36 0.15L36 0.15Q31 0.15 31-9.2L31-9.2Q31-14.3 32.25-18.45L32.25-18.45Q34.2-24.85 36.65-24.85L36.65-24.85Q38.1-24.85 38.95-22.9L38.95-22.9Q39.65-21.4 39.6-19.95L39.6-19.95Q39.6-17.95 38.4-12.9L38.4-12.9Q37.25-8.5 37.25-7.45 37.25-6.4 37.77-6 38.3-5.6 39.02-5.6 39.75-5.6 40.85-6.55 41.95-7.5 43.05-8.63 44.15-9.75 45.07-10.7 46-11.65 46.35-11.65L46.35-11.65Q47.05-11.65 47.05-9.95L47.05-9.95Q47.05-6.45 43.52-3.13 40 0.2 36 0.15ZM38.05-28.9L38.05-28.9Q36.7-30.9 36.7-33.2 36.7-35.5 37.42-37.02 38.15-38.55 38.8-39.28 39.45-40 40.3-40L40.3-40Q41.7-40 42.85-37.93 44-35.85 44-34.45L44-34.45Q44-31.85 42.17-30.38 40.35-28.9 38.05-28.9ZM46.77-2.73Q46.2-4.05 45.95-5.83 45.7-7.6 45.7-10.8 45.7-14 46.9-19.45L46.9-19.45 44.65-19.45Q44.05-19.45 44.05-19.95L44.05-19.95Q44.05-21.15 44.27-21.93 44.5-22.7 45.34-23.7L45.34-23.7 46.55-23.7Q47.25-23.7 48.05-23.75L48.05-23.75Q50.45-31.45 52.95-31.45L52.95-31.45Q54.95-31.4 55.75-28.9L55.75-28.9Q55.95-28.2 56.2-27.4L56.2-27.4 54.15-23.8Q57.65-23.7 58.57-23.7 59.5-23.7 59.57-23.53 59.65-23.35 59.65-23L59.65-23Q59.65-22.1 59.22-20.75 58.8-19.4 58.25-19.45L58.25-19.45 53.25-19.7Q52.2-13.6 52.2-9.6 52.2-5.6 53.34-5.6L53.34-5.6Q54.3-5.6 56.8-7.18 59.3-8.75 60.4-10.2 61.5-11.65 62.2-11.65L62.2-11.65Q62.9-11.65 62.9-9.95 62.9-8.25 61.7-6.48 60.5-4.7 58.67-3.23 56.84-1.75 54.62-0.8 52.4 0.15 50.75 0.15 49.09 0.15 48.22-0.63 47.34-1.4 46.77-2.73Z" opacity="1" transform="matrix(1,0,0,1,0,0)" fill="#000000" class="wordmark-text-0" data-fill-palette-color="quaternary" id="text-0"></path></svg></g></svg></g></svg></g></svg></g><g transform="matrix(1,0,0,1,40.713262274387006,0)"><svg viewBox="0 0 131.7319166783831 62.19225603790036" height="62.19225603790036" width="131.7319166783831"><g><svg xmlns="http://www.w3.org/2000/svg" xmlns:xlink="http://www.w3.org/1999/xlink" version="1.0" x="0" y="0" viewBox="0 26.394744184335583 100 47.2112283841885" enable-background="new 0 0 100 100" xml:space="preserve" height="62.19225603790036" width="131.7319166783831" class="icon-icon-0" data-fill-palette-color="quaternary" id="icon-0"><g fill="#c0ff00" data-fill-palette-color="quaternary"><path fill="#000000" d="M38.991 38.769L38.995 38.773A4.708 4.708 0 0 0 32.34 32.116L32.346 32.124C32.307 32.154 32.271 32.181 32.234 32.215L26.676 37.775A1.569 1.569 0 0 0 28.892 39.993L34.452 34.435V34.439A1.57 1.57 0 1 1 36.67 36.661L36.68 36.663 32.233 41.112A1.564 1.564 0 1 0 34.447 43.326L38.903 38.881C38.934 38.847 38.957 38.808 38.991 38.769" data-fill-palette-color="quaternary"></path><path fill="#000000" d="M32.322 36.546L32.33 36.55A4.714 4.714 0 0 0 32.228 29.995 4.71 4.71 0 0 0 25.673 29.891L25.679 29.903A1 1 0 0 0 25.567 29.992L22.23 33.331A1.569 1.569 0 0 0 24.448 35.549L27.781 32.215 27.785 32.217A1.575 1.575 0 0 1 30.009 32.217C30.621 32.83 30.619 33.828 30.007 34.441L30.011 34.445 26.676 37.778A1.57 1.57 0 0 0 28.896 39.996L32.232 36.66A1 1 0 0 0 32.322 36.546" data-fill-palette-color="quaternary"></path><path fill="#000000" d="M38.914 56.85L38.908 56.858C38.876 56.819 38.851 56.781 38.814 56.744L34.365 52.297 50.008 36.658C50.043 36.625 50.071 36.583 50.1 36.546L50.106 36.548A4.708 4.708 0 0 0 43.451 29.893L43.457 29.903C43.418 29.935 43.378 29.958 43.343 29.992L31.118 42.218C30.508 42.83 30.508 43.823 31.12 44.436A1.567 1.567 0 0 0 33.336 44.436L45.561 32.215A1.57 1.57 0 0 1 47.785 32.217 1.576 1.576 0 0 1 47.785 34.441L47.791 34.447 31.051 51.183A1.567 1.567 0 0 0 31.049 53.395L31.037 53.405 36.593 58.961 36.591 58.963A1.573 1.573 0 0 1 34.369 61.187L34.365 61.191 32.141 58.969 32.137 58.971C31.584 58.462 29.793 57.03 27.163 57.004 24.427 56.978 21.648 58.357 18.901 61.105L13.333 66.674 15.553 68.891 21.121 63.325C26.409 58.035 29.568 60.847 29.912 61.181L31.029 60.082 29.924 61.187 32.148 63.411C32.185 63.448 32.223 63.472 32.264 63.505L32.26 63.507A4.71 4.71 0 0 0 38.815 63.409 4.715 4.715 0 0 0 38.914 56.85" data-fill-palette-color="quaternary"></path><path fill="#000000" d="M25.661 34.322L25.663 34.326A4.71 4.71 0 0 0 25.561 27.771 4.715 4.715 0 0 0 19.008 27.669L19.016 27.679C18.977 27.711 18.937 27.738 18.902 27.773L17.787 28.888 17.783 28.886 6.675 39.994 8.899 42.218 20.008 31.11 20.002 31.104 21.115 29.991 21.119 29.993A1.573 1.573 0 0 1 23.341 32.217L23.347 32.223 22.236 33.336C21.626 33.946 21.626 34.941 22.236 35.554A1.57 1.57 0 0 0 24.452 35.552L25.567 34.437C25.6 34.401 25.629 34.359 25.661 34.322" data-fill-palette-color="quaternary"></path><path fill="#000000" d="M2.222 55.562L0 53.338 6.663 46.673C4.441 44.451 4.441 42.228 6.663 40.006L8.887 42.23 7.774 41.119 8.899 42.218C8.401 42.743 7.992 43.559 8.887 44.454L11.109 46.678z" data-fill-palette-color="quaternary"></path><path fill="#000000" d="M61.009 61.232L61.005 61.228A4.708 4.708 0 0 0 67.66 67.883L67.654 67.877C67.69 67.845 67.729 67.816 67.766 67.779L73.32 62.223A1.57 1.57 0 0 0 73.324 60.007 1.57 1.57 0 0 0 71.106 60.007L65.552 65.561 65.548 65.559A1.567 1.567 0 0 1 63.33 65.559 1.57 1.57 0 0 1 63.326 63.337L63.318 63.333 67.768 58.885C68.378 58.275 68.378 57.28 67.768 56.667A1.57 1.57 0 0 0 65.55 56.669L61.102 61.117C61.066 61.155 61.039 61.192 61.009 61.232" data-fill-palette-color="quaternary"></path><path fill="#000000" d="M67.676 63.454L67.672 63.45A4.71 4.71 0 0 0 67.772 70.005 4.713 4.713 0 0 0 74.327 70.105L74.319 70.097C74.358 70.067 74.396 70.04 74.431 70.008L77.768 66.669A1.567 1.567 0 1 0 75.55 64.454L72.218 67.789 72.216 67.787C71.604 68.397 70.609 68.397 69.996 67.785A1.57 1.57 0 0 1 69.994 65.565L69.986 65.557 73.321 62.224A1.57 1.57 0 0 0 71.103 60.006L67.767 63.343C67.733 63.377 67.706 63.415 67.676 63.454" data-fill-palette-color="quaternary"></path><path fill="#000000" d="M61.084 43.146L61.092 43.142C61.125 43.179 61.149 43.219 61.183 43.256L65.63 47.703 49.99 63.34C49.953 63.375 49.931 63.415 49.896 63.454L49.894 63.448A4.71 4.71 0 0 0 56.551 70.105L56.541 70.095C56.582 70.066 56.62 70.04 56.655 70.005L68.878 57.782A1.568 1.568 0 1 0 66.663 55.564L54.439 67.788 54.437 67.784A1.572 1.572 0 0 1 52.215 65.562L52.209 65.556 68.949 48.82C69.559 48.21 69.559 47.219 68.949 46.606L68.961 46.594 63.405 41.038A1.576 1.576 0 0 1 63.407 38.814 1.574 1.574 0 0 1 65.629 38.814L65.633 38.81 67.857 41.036 67.863 41.03C68.414 41.543 70.207 42.971 72.837 42.997 75.571 43.023 78.352 41.644 81.099 38.896L86.669 33.327 84.447 31.105 78.878 36.676C73.588 41.962 70.431 39.154 70.087 38.816L68.97 39.921 70.075 38.814 67.849 36.588C67.814 36.553 67.774 36.527 67.735 36.498L67.737 36.49A4.714 4.714 0 0 0 61.184 36.59 4.714 4.714 0 0 0 61.084 43.146" data-fill-palette-color="quaternary"></path><path fill="#000000" d="M74.339 65.678L74.335 65.672A4.71 4.71 0 0 0 74.435 72.227 4.713 4.713 0 0 0 80.992 72.329L80.984 72.321C81.019 72.288 81.061 72.264 81.098 72.227L82.211 71.114 93.324 60.006 91.1 57.782 79.987 68.89 79.995 68.896 78.882 70.007 78.88 70.005A1.573 1.573 0 0 1 76.656 70.005 1.576 1.576 0 0 1 76.656 67.783L76.654 67.777 77.765 66.666C78.375 66.053 78.375 65.059 77.763 64.446A1.57 1.57 0 0 0 75.546 64.448L74.433 65.561C74.396 65.598 74.369 65.639 74.339 65.678" data-fill-palette-color="quaternary"></path><path fill="#000000" d="M97.78 44.437L100 46.659 93.333 53.326C95.555 55.548 95.555 57.77 93.337 59.989L91.113 57.765 92.224 58.878 91.099 57.781C91.599 57.256 92.008 56.442 91.113 55.545L88.891 53.325z" data-fill-palette-color="quaternary"></path></g></svg></g></svg></g><g></g></svg></g></svg></g></svg></g></svg></g><defs></defs></svg><rect width="333.90454557049503" height="333.90454557049503" fill="none" stroke="none" visibility="hidden"></rect></g></svg></g></svg>