<svg xmlns="http://www.w3.org/2000/svg" version="1.1" xmlns:xlink="http://www.w3.org/1999/xlink" xmlns:svgjs="http://svgjs.dev/svgjs" width="2000" height="1500" viewBox="0 0 2000 1500"><rect width="2000" height="1500" fill="#ffffff"></rect><g transform="matrix(0.75,0,0,0.75,250,0)"><svg viewBox="0 0 280 280" data-background-color="#ffffff" preserveAspectRatio="xMidYMid meet" height="2000" width="2000" xmlns="http://www.w3.org/2000/svg" xmlns:xlink="http://www.w3.org/1999/xlink"><g id="tight-bounds" transform="matrix(1,0,0,1,0,0)"><svg viewBox="0 0 280 280" height="280" width="280"><g><svg viewBox="0 0 280 280" height="280" width="280"><g><svg viewBox="0 0 280 280" height="280" width="280"><g id="textblocktransform"><svg viewBox="0 0 280 280" height="280" width="280" id="textblock"><g><svg viewBox="0 0 280 280" height="280" width="280"><g transform="matrix(1,0,0,1,90.50252531694167,104.32274511121697)"><svg viewBox="0 0 98.99494936611664 71.35450977756605" height="71.35450977756605" width="98.99494936611664"><g id="icon-0"><svg xmlns="http://www.w3.org/2000/svg" xmlns:xlink="http://www.w3.org/1999/xlink" version="1.1" x="0" y="0" viewBox="8.384 14.148 84.875 61.17700000000001" enable-background="new 0 0 100 100" xml:space="preserve" height="71.35450977756605" width="98.99494936611664" class="icon-jxe-0" data-fill-palette-color="accent" id="jxe-0"><path d="M74.609 72.314A2.091 2.091 0 0 1 74.04 68.211C83.314 65.578 89.076 61.5 89.076 57.567 89.076 55.389 87.272 53.505 85.758 52.308A2.092 2.092 0 0 1 88.352 49.026C92.408 52.233 93.259 55.44 93.259 57.566 93.259 63.625 86.67 68.971 75.182 72.233A2 2 0 0 1 74.609 72.314" fill="#24a8df" data-fill-palette-color="accent"></path><path d="M38.985 44.685C22.967 46.632 12.567 52.342 12.567 57.567 12.567 63.989 28.278 71.143 50.821 71.143 56.453 71.143 61.888 70.693 66.975 69.805A2.095 2.095 0 0 1 69.395 71.506 2.094 2.094 0 0 1 67.694 73.926C62.37 74.854 56.693 75.325 50.821 75.325 26.628 75.325 8.384 67.69 8.384 57.567 8.384 49.399 20.26 42.851 37.554 40.626" fill="#24a8df" data-fill-palette-color="accent"></path><path d="M62.991 40.516C67.202 41.021 71.199 41.79 74.858 42.808A2.091 2.091 0 0 1 73.737 46.837C70.214 45.857 66.351 45.12 62.271 44.641" fill="#24a8df" data-fill-palette-color="accent"></path><path d="M44.812 50.31C41.183 50.762 38.021 51.612 35.952 52.744A2.09 2.09 0 1 1 33.943 49.076C36.005 47.947 38.814 47.066 42.039 46.497" fill="#24a8df" data-fill-palette-color="accent"></path><path d="M59.563 46.499C66.419 47.713 71.782 50.416 71.782 54.512 71.782 60.254 61.237 63.26 50.821 63.26 44.297 63.26 38.337 62.152 34.468 60.222A2.092 2.092 0 0 1 36.336 56.48C39.596 58.107 45.012 59.078 50.822 59.078 61.721 59.078 67.6 55.838 67.6 54.513 67.6 53.447 63.799 51.144 56.644 50.282" fill="#24a8df" data-fill-palette-color="accent"></path><path d="M31.917 56.868A2.09 2.09 0 0 1 29.846 54.467C29.87 54.269 29.909 54.102 29.976 53.911A2.093 2.093 0 0 1 33.979 55.109 2.09 2.09 0 0 1 31.917 56.868" fill="#24a8df" data-fill-palette-color="accent"></path><path d="M50.822 52.759C43.095 52.759 36.809 46.473 36.809 38.746 36.809 37.078 37.111 35.427 37.708 33.837 40.562 23.518 48.562 15.14 48.902 14.787 49.292 14.383 49.827 14.153 50.389 14.148 50.97 14.169 51.49 14.364 51.886 14.761 60.74 23.614 63.506 31.371 64.367 35.206 64.587 36.019 64.737 36.943 64.793 37.872 64.845 38.447 64.835 38.787 64.835 38.787 64.834 46.473 58.548 52.759 50.822 52.759M50.477 19.323C48.137 22.128 43.576 28.219 41.714 35.036 41.696 35.103 41.674 35.169 41.65 35.234A9.8 9.8 0 0 0 40.99 38.745C40.99 44.166 45.4 48.576 50.821 48.576S60.651 44.166 60.651 38.745C60.651 38.674 60.648 38.489 60.621 38.181A10 10 0 0 0 60.304 36.202C59.576 32.959 57.36 26.731 50.477 19.323" fill="#24a8df" data-fill-palette-color="accent"></path></svg></g></svg></g><g id="text-0"><path d="M78.439 18.202v0c0.957-0.519 1.922-0.637 2.893-0.354 0.961 0.28 1.712 0.918 2.252 1.914v0c0.543 1.002 0.67 1.982 0.38 2.94-0.296 0.962-0.923 1.702-1.881 2.221v0c-0.951 0.516-1.922 0.629-2.913 0.341-0.994-0.295-1.751-0.922-2.269-1.879v0c-0.54-0.996-0.655-1.978-0.347-2.947 0.306-0.975 0.934-1.72 1.885-2.236z" fill="#0718c4" data-fill-palette-color="primary"></path><path d="M187.261 11.733v0c1.022 0.377 1.747 1.023 2.176 1.939 0.424 0.907 0.44 1.892 0.048 2.955v0c-0.394 1.07-1.047 1.812-1.958 2.226-0.918 0.412-1.888 0.43-2.91 0.054v0c-1.015-0.374-1.741-1.029-2.178-1.964-0.434-0.942-0.463-1.924-0.087-2.946v0c0.392-1.063 1.053-1.798 1.985-2.205 0.934-0.414 1.909-0.434 2.924-0.059z" fill="#0718c4" data-fill-palette-color="primary"></path><path d="M71.714 257.321v0c0.221 0.126 0.365 0.305 0.433 0.536 0.062 0.228 0.025 0.462-0.111 0.701v0c-0.133 0.233-0.314 0.381-0.542 0.443-0.234 0.059-0.462 0.025-0.682-0.101v0c-0.227-0.13-0.373-0.313-0.438-0.551-0.065-0.238-0.034-0.467 0.092-0.688v0c0.137-0.24 0.322-0.389 0.556-0.447 0.234-0.059 0.465-0.023 0.692 0.107z" fill="#0718c4" data-fill-palette-color="primary"></path><path d="M187.963 266.763v0c0.239-0.087 0.468-0.083 0.69 0.014 0.214 0.099 0.369 0.279 0.464 0.538v0c0.092 0.252 0.089 0.486-0.011 0.7-0.106 0.217-0.279 0.369-0.517 0.456v0c-0.245 0.09-0.48 0.083-0.704-0.021-0.224-0.104-0.379-0.275-0.466-0.513v0c-0.095-0.259-0.089-0.497 0.017-0.714 0.106-0.217 0.282-0.37 0.527-0.46z" fill="#0718c4" data-fill-palette-color="primary"></path><path d="M0 136.083c0-1.528 1.239-2.767 2.767-2.767 1.528 0 2.767 1.239 2.766 2.767 0 1.528-1.239 2.767-2.766 2.767-1.528 0-2.767-1.239-2.767-2.767z" fill="#0718c4" data-fill-palette-color="primary"></path><path d="M274.467 136.083c0-1.528 1.239-2.767 2.766-2.767 1.528 0 2.767 1.239 2.767 2.767 0 1.528-1.239 2.767-2.767 2.767-1.528 0-2.767-1.239-2.766-2.767z" fill="#0718c4" data-fill-palette-color="primary"></path></g><g id="text-1"></g></svg></g></svg></g></svg></g></svg></g><defs></defs></svg><rect width="280" height="280" fill="none" stroke="none" visibility="hidden"></rect></g></svg></g></svg>